<svg width="235" height="37" viewBox="0 0 235 37" fill="none" xmlns="http://www.w3.org/2000/svg">
<path d="M7.88574 34.5703C7.88574 35.0586 7.77995 35.4004 7.56836 35.5957C7.37305 35.7747 7.03125 35.8643 6.54297 35.8643H1.34277C0.854492 35.8643 0.504557 35.7747 0.292969 35.5957C0.0976562 35.4004 0 35.0586 0 34.5703V7.39746C0 5.76986 0.146484 4.48405 0.439453 3.54004C0.748698 2.57975 1.33464 1.89616 2.19727 1.48926C3.07617 1.06608 4.35384 0.854492 6.03027 0.854492H12.5C20.9961 0.854492 25.2441 4.11784 25.2441 10.6445C25.2441 12.6302 24.9105 14.2578 24.2432 15.5273C23.5758 16.7969 22.7458 17.7897 21.7529 18.5059C20.7601 19.2057 19.7835 19.7347 18.8232 20.0928V20.2148C19.9137 20.931 20.9473 21.875 21.9238 23.0469C22.9167 24.2025 23.8118 25.4639 24.6094 26.8311C25.4069 28.182 26.0824 29.5247 26.6357 30.8594C27.1891 32.1777 27.5716 33.3577 27.7832 34.3994C27.8809 34.8877 27.8809 35.2539 27.7832 35.498C27.7018 35.7422 27.4251 35.8643 26.9531 35.8643H21.3135C20.8903 35.8643 20.516 35.7747 20.1904 35.5957C19.8812 35.4167 19.5964 35.0016 19.3359 34.3506C18.099 31.2419 16.6748 28.7109 15.0635 26.7578C13.4521 24.7884 11.8978 23.2096 10.4004 22.0215C9.4401 21.2565 8.95996 20.7113 8.95996 20.3857C8.95996 20.1253 9.11458 19.7673 9.42383 19.3115C9.61914 19.0348 9.90397 18.7012 10.2783 18.3105C10.6527 17.9199 10.9782 17.627 11.2549 17.4316C11.5316 17.2363 11.7513 17.1143 11.9141 17.0654C12.0931 17.0166 12.3617 16.9922 12.7197 16.9922C13.9242 16.9922 14.9251 16.5771 15.7227 15.7471C16.5365 14.917 16.9434 13.6068 16.9434 11.8164C16.9434 10.1237 16.512 8.88672 15.6494 8.10547C14.8031 7.30794 13.6312 6.90918 12.1338 6.90918H10.6689C9.59473 6.90918 8.8623 7.13704 8.47168 7.59277C8.08105 8.0485 7.88574 8.82975 7.88574 9.93652V34.5703Z" fill="#F0F0F0"/>
<path d="M47.3877 36.4746C44.0023 36.4746 41.0563 35.8236 38.5498 34.5215C36.0433 33.2194 34.0983 31.2581 32.7148 28.6377C31.3477 26.0173 30.6641 22.7458 30.6641 18.8232C30.6641 12.5895 32.1859 7.94271 35.2295 4.88281C38.2731 1.80664 42.513 0.268555 47.9492 0.268555C53.0436 0.268555 57.0719 1.77409 60.0342 4.78516C62.9964 7.77995 64.4775 12.2233 64.4775 18.1152C64.4775 22.2819 63.7858 25.7243 62.4023 28.4424C61.0189 31.1442 59.0495 33.1624 56.4941 34.4971C53.9388 35.8154 50.9033 36.4746 47.3877 36.4746ZM47.5342 29.8828C50.4639 29.8828 52.6367 28.833 54.0527 26.7334C55.4688 24.6338 56.1768 21.9076 56.1768 18.5547C56.1768 14.6647 55.5094 11.7432 54.1748 9.79004C52.8402 7.83691 50.6917 6.86035 47.7295 6.86035C41.8864 6.86035 38.9648 10.7096 38.9648 18.4082C38.9648 21.8424 39.6647 24.6175 41.0645 26.7334C42.4805 28.833 44.637 29.8828 47.5342 29.8828Z" fill="#F0F0F0"/>
<path d="M85.3027 29.8828C86.4909 29.8828 87.4186 29.7607 88.0859 29.5166C88.7695 29.2725 89.2985 28.9714 89.6729 28.6133C90.0472 28.2552 90.3727 27.8971 90.6494 27.5391C90.9098 27.2135 91.1214 26.9694 91.2842 26.8066C91.4632 26.6439 91.7074 26.5299 92.0166 26.4648C92.277 26.3835 92.6921 26.3346 93.2617 26.3184C93.8477 26.2858 94.4255 26.2695 94.9951 26.2695C95.5811 26.2695 95.988 26.2858 96.2158 26.3184C96.5576 26.3346 96.7936 26.3997 96.9238 26.5137C97.054 26.6276 97.1354 26.8717 97.168 27.2461C97.2168 27.7669 97.2412 28.3854 97.2412 29.1016C97.2575 29.8177 97.2494 30.4362 97.2168 30.957C97.2005 31.1198 97.168 31.2581 97.1191 31.3721C97.0866 31.486 97.0052 31.6569 96.875 31.8848C96.7122 32.1452 96.3949 32.5277 95.9229 33.0322C95.4508 33.5205 94.7591 34.0332 93.8477 34.5703C92.9362 35.0911 91.7562 35.5387 90.3076 35.9131C88.8753 36.2874 87.1094 36.4746 85.0098 36.4746C82.7637 36.4746 80.6641 36.1898 78.7109 35.6201C76.7578 35.0342 75.0407 34.0576 73.5596 32.6904C72.0947 31.3232 70.9473 29.4759 70.1172 27.1484C69.3034 24.821 68.8965 21.9157 68.8965 18.4326C68.8965 14.5589 69.5638 11.2712 70.8984 8.56934C72.2494 5.85124 74.1618 3.78418 76.6357 2.36816C79.1097 0.952148 82.0394 0.244141 85.4248 0.244141C87.8011 0.244141 89.7054 0.488281 91.1377 0.976562C92.5863 1.46484 93.6849 2.04264 94.4336 2.70996C95.1823 3.361 95.7113 3.93066 96.0205 4.41895C96.1344 4.59798 96.2158 4.76074 96.2646 4.90723C96.3135 5.03744 96.346 5.24902 96.3623 5.54199C96.4111 5.93262 96.4193 6.50228 96.3867 7.25098C96.3704 7.99967 96.3135 8.65885 96.2158 9.22852C96.1507 9.58659 96.0449 9.82259 95.8984 9.93652C95.8333 10.0016 95.7194 10.0586 95.5566 10.1074C95.3939 10.1562 95.1497 10.1807 94.8242 10.1807C94.3034 10.1807 93.7174 10.1644 93.0664 10.1318C92.4154 10.083 91.9271 10.0342 91.6016 9.98535C91.2109 9.92025 90.9261 9.83073 90.7471 9.7168C90.568 9.58659 90.389 9.39128 90.21 9.13086C89.917 8.70768 89.4124 8.2194 88.6963 7.66602C87.9801 7.11263 86.8001 6.83594 85.1562 6.83594C82.8451 6.83594 80.9408 7.73112 79.4434 9.52148C77.946 11.2956 77.1973 14.1764 77.1973 18.1641C77.1973 22.1354 77.9785 25.0814 79.541 27.002C81.1198 28.9225 83.0404 29.8828 85.3027 29.8828Z" fill="#F0F0F0"/>
<path d="M110.522 34.5703C110.522 35.0586 110.417 35.4004 110.205 35.5957C110.01 35.7747 109.668 35.8643 109.18 35.8643H103.979C103.491 35.8643 103.141 35.7747 102.93 35.5957C102.734 35.4004 102.637 35.0586 102.637 34.5703V4.76074C102.637 4.28874 102.718 3.93066 102.881 3.68652C103.613 2.6123 104.639 1.48112 105.957 0.292969C106.201 0.0976562 106.413 0 106.592 0C106.787 0 106.991 0.0976562 107.202 0.292969C107.918 0.911458 108.521 1.50553 109.009 2.0752C109.497 2.62858 109.92 3.16569 110.278 3.68652C110.441 3.94694 110.522 4.30501 110.522 4.76074V14.8926H111.084C113.118 14.8926 114.771 14.6159 116.04 14.0625C117.31 13.4928 118.286 12.736 118.97 11.792C119.653 10.8317 120.117 9.76562 120.361 8.59375C120.622 7.42188 120.752 6.22559 120.752 5.00488V4.76074C120.752 4.28874 120.833 3.93066 120.996 3.68652C121.729 2.6123 122.754 1.48112 124.072 0.292969C124.316 0.0976562 124.528 0 124.707 0C124.902 0 125.106 0.0976562 125.317 0.292969C126.034 0.911458 126.636 1.50553 127.124 2.0752C127.612 2.62858 128.035 3.16569 128.394 3.68652C128.556 3.94694 128.638 4.30501 128.638 4.76074V5.00488C128.638 6.32324 128.507 7.69043 128.247 9.10645C127.987 10.5062 127.523 11.8327 126.855 13.0859C126.204 14.3392 125.277 15.4134 124.072 16.3086C122.884 17.1875 121.346 17.7653 119.458 18.042V18.2129C121.151 18.75 122.656 19.6452 123.975 20.8984C125.309 22.1354 126.457 23.5514 127.417 25.1465C128.394 26.7415 129.191 28.3447 129.81 29.9561C130.428 31.5674 130.868 33.0078 131.128 34.2773C131.258 34.8796 131.258 35.2946 131.128 35.5225C130.998 35.7503 130.688 35.8643 130.2 35.8643H124.219C123.389 35.8643 122.9 35.4818 122.754 34.7168C122.51 33.4798 122.03 32.0882 121.313 30.542C120.614 28.9795 119.735 27.474 118.677 26.0254C117.619 24.5768 116.439 23.3805 115.137 22.4365C113.851 21.4925 112.5 21.0205 111.084 21.0205H110.522V34.5703Z" fill="#F0F0F0"/>
<path d="M151.367 34.5703C151.367 35.0586 151.261 35.4004 151.05 35.5957C150.854 35.7747 150.513 35.8643 150.024 35.8643H144.824C144.336 35.8643 143.986 35.7747 143.774 35.5957C143.579 35.4004 143.481 35.0586 143.481 34.5703V7.27539H136.206C135.815 7.27539 135.522 7.21029 135.327 7.08008C134.904 6.78711 134.465 6.43717 134.009 6.03027C133.569 5.62337 133.089 5.13509 132.568 4.56543C132.406 4.35384 132.324 4.18294 132.324 4.05273C132.324 3.90625 132.406 3.74349 132.568 3.56445C133.089 2.99479 133.569 2.50651 134.009 2.09961C134.465 1.69271 134.904 1.34277 135.327 1.0498C135.555 0.919596 135.848 0.854492 136.206 0.854492H158.667C159.058 0.854492 159.351 0.919596 159.546 1.0498C159.969 1.34277 160.409 1.69271 160.864 2.09961C161.32 2.50651 161.8 2.99479 162.305 3.56445C162.467 3.77604 162.549 3.94694 162.549 4.07715C162.549 4.22363 162.467 4.38639 162.305 4.56543C161.8 5.13509 161.32 5.62337 160.864 6.03027C160.409 6.43717 159.969 6.78711 159.546 7.08008C159.318 7.21029 159.025 7.27539 158.667 7.27539H151.367V34.5703Z" fill="#F0F0F0"/>
<path d="M180.249 36.4746C176.864 36.4746 173.918 35.8236 171.411 34.5215C168.905 33.2194 166.96 31.2581 165.576 28.6377C164.209 26.0173 163.525 22.7458 163.525 18.8232C163.525 12.5895 165.047 7.94271 168.091 4.88281C171.134 1.80664 175.374 0.268555 180.811 0.268555C185.905 0.268555 189.933 1.77409 192.896 4.78516C195.858 7.77995 197.339 12.2233 197.339 18.1152C197.339 22.2819 196.647 25.7243 195.264 28.4424C193.88 31.1442 191.911 33.1624 189.355 34.4971C186.8 35.8154 183.765 36.4746 180.249 36.4746ZM180.396 29.8828C183.325 29.8828 185.498 28.833 186.914 26.7334C188.33 24.6338 189.038 21.9076 189.038 18.5547C189.038 14.6647 188.371 11.7432 187.036 9.79004C185.701 7.83691 183.553 6.86035 180.591 6.86035C174.748 6.86035 171.826 10.7096 171.826 18.4082C171.826 21.8424 172.526 24.6175 173.926 26.7334C175.342 28.833 177.498 29.8828 180.396 29.8828Z" fill="#F0F0F0"/>
<path d="M210.913 34.5703C210.913 35.0586 210.815 35.4004 210.62 35.5957C210.441 35.7747 210.116 35.8643 209.644 35.8643H204.736C204.281 35.8643 203.955 35.7747 203.76 35.5957C203.564 35.4004 203.467 35.0586 203.467 34.5703V3.6377C203.467 2.67741 203.654 1.97754 204.028 1.53809C204.403 1.08236 205.062 0.854492 206.006 0.854492H208.276C209.106 0.854492 209.888 0.968424 210.62 1.19629C211.369 1.40788 212.158 1.89616 212.988 2.66113C213.835 3.42611 214.811 4.61426 215.918 6.22559C217.041 7.82064 218.392 10.0016 219.971 12.7686C221.484 15.4053 222.697 17.513 223.608 19.0918C224.536 20.6706 225.252 21.875 225.757 22.7051C226.261 23.5352 226.636 24.1292 226.88 24.4873C227.14 24.8454 227.352 25.1383 227.515 25.3662V4.76074C227.515 4.28874 227.588 3.93066 227.734 3.68652C228.434 2.6123 229.403 1.48112 230.64 0.292969C230.884 0.0976562 231.087 0 231.25 0C231.429 0 231.624 0.0976562 231.836 0.292969C232.503 0.911458 233.065 1.50553 233.521 2.0752C233.993 2.62858 234.399 3.16569 234.741 3.68652C234.888 3.94694 234.961 4.30501 234.961 4.76074V33.8379C234.961 34.5703 234.823 35.0911 234.546 35.4004C234.269 35.7096 233.765 35.8643 233.032 35.8643H230.688C229.989 35.8643 229.272 35.7503 228.54 35.5225C227.808 35.2783 226.978 34.7412 226.05 33.9111C225.122 33.0648 224.023 31.7546 222.754 29.9805C221.484 28.2064 219.954 25.7812 218.164 22.7051C216.65 20.0846 215.438 18.0013 214.526 16.4551C213.631 14.9089 212.948 13.7451 212.476 12.9639C212.004 12.1663 211.662 11.613 211.45 11.3037C211.239 10.9782 211.06 10.734 210.913 10.5713V34.5703Z" fill="#F0F0F0"/>
</svg>
