<svg width="243" height="65" viewBox="0 0 243 65" fill="none" xmlns="http://www.w3.org/2000/svg">
<path d="M11.792 50.7061C11.792 51.1943 11.6862 51.5361 11.4746 51.7314C11.2793 51.9105 10.9375 52 10.4492 52H5.24902C4.76074 52 4.41081 51.9105 4.19922 51.7314C4.00391 51.5361 3.90625 51.1943 3.90625 50.7061V23.5332C3.90625 21.9056 4.05273 20.6198 4.3457 19.6758C4.65495 18.7155 5.24089 18.0319 6.10352 17.625C6.98242 17.2018 8.26009 16.9902 9.93652 16.9902H16.4062C24.9023 16.9902 29.1504 20.2536 29.1504 26.7803C29.1504 28.766 28.8167 30.3936 28.1494 31.6631C27.4821 32.9326 26.652 33.9255 25.6592 34.6416C24.6663 35.3415 23.6898 35.8704 22.7295 36.2285V36.3506C23.82 37.0667 24.8535 38.0107 25.8301 39.1826C26.8229 40.3382 27.7181 41.5996 28.5156 42.9668C29.3132 44.3177 29.9886 45.6605 30.542 46.9951C31.0954 48.3135 31.4779 49.4935 31.6895 50.5352C31.7871 51.0234 31.7871 51.3896 31.6895 51.6338C31.6081 51.8779 31.3314 52 30.8594 52H25.2197C24.7965 52 24.4222 51.9105 24.0967 51.7314C23.7874 51.5524 23.5026 51.1374 23.2422 50.4863C22.0052 47.3776 20.5811 44.8467 18.9697 42.8936C17.3584 40.9242 15.804 39.3454 14.3066 38.1572C13.3464 37.3923 12.8662 36.847 12.8662 36.5215C12.8662 36.2611 13.0208 35.903 13.3301 35.4473C13.5254 35.1706 13.8102 34.8369 14.1846 34.4463C14.5589 34.0557 14.8844 33.7627 15.1611 33.5674C15.4378 33.3721 15.6576 33.25 15.8203 33.2012C15.9993 33.1523 16.2679 33.1279 16.626 33.1279C17.8304 33.1279 18.8314 32.7129 19.6289 31.8828C20.4427 31.0527 20.8496 29.7425 20.8496 27.9521C20.8496 26.2594 20.4183 25.0225 19.5557 24.2412C18.7093 23.4437 17.5374 23.0449 16.04 23.0449H14.5752C13.501 23.0449 12.7686 23.2728 12.3779 23.7285C11.9873 24.1842 11.792 24.9655 11.792 26.0723V50.7061ZM51.2939 52.6104C47.9085 52.6104 44.9626 51.9593 42.4561 50.6572C39.9495 49.3551 38.0046 47.3939 36.6211 44.7734C35.2539 42.153 34.5703 38.8815 34.5703 34.959C34.5703 28.7253 36.0921 24.0785 39.1357 21.0186C42.1794 17.9424 46.4193 16.4043 51.8555 16.4043C56.9499 16.4043 60.9782 17.9098 63.9404 20.9209C66.9027 23.9157 68.3838 28.359 68.3838 34.251C68.3838 38.4176 67.6921 41.86 66.3086 44.5781C64.9251 47.2799 62.9557 49.2982 60.4004 50.6328C57.8451 51.9512 54.8096 52.6104 51.2939 52.6104ZM51.4404 46.0186C54.3701 46.0186 56.543 44.9688 57.959 42.8691C59.375 40.7695 60.083 38.0433 60.083 34.6904C60.083 30.8005 59.4157 27.8789 58.0811 25.9258C56.7464 23.9727 54.598 22.9961 51.6357 22.9961C45.7926 22.9961 42.8711 26.8454 42.8711 34.5439C42.8711 37.9782 43.571 40.7533 44.9707 42.8691C46.3867 44.9688 48.5433 46.0186 51.4404 46.0186ZM89.209 46.0186C90.3971 46.0186 91.3249 45.8965 91.9922 45.6523C92.6758 45.4082 93.2048 45.1071 93.5791 44.749C93.9535 44.391 94.279 44.0329 94.5557 43.6748C94.8161 43.3493 95.0277 43.1051 95.1904 42.9424C95.3695 42.7796 95.6136 42.6657 95.9229 42.6006C96.1833 42.5192 96.5983 42.4704 97.168 42.4541C97.7539 42.4215 98.3317 42.4053 98.9014 42.4053C99.4873 42.4053 99.8942 42.4215 100.122 42.4541C100.464 42.4704 100.7 42.5355 100.83 42.6494C100.96 42.7633 101.042 43.0075 101.074 43.3818C101.123 43.9027 101.147 44.5212 101.147 45.2373C101.164 45.9535 101.156 46.5719 101.123 47.0928C101.107 47.2555 101.074 47.3939 101.025 47.5078C100.993 47.6217 100.911 47.7926 100.781 48.0205C100.618 48.2809 100.301 48.6634 99.8291 49.168C99.3571 49.6562 98.6654 50.1689 97.7539 50.7061C96.8424 51.2269 95.6624 51.6745 94.2139 52.0488C92.7816 52.4232 91.0156 52.6104 88.916 52.6104C86.6699 52.6104 84.5703 52.3255 82.6172 51.7559C80.6641 51.1699 78.9469 50.1934 77.4658 48.8262C76.001 47.459 74.8535 45.6117 74.0234 43.2842C73.2096 40.9567 72.8027 38.0514 72.8027 34.5684C72.8027 30.6947 73.4701 27.4069 74.8047 24.7051C76.1556 21.987 78.068 19.9199 80.542 18.5039C83.016 17.0879 85.9456 16.3799 89.3311 16.3799C91.7074 16.3799 93.6117 16.624 95.0439 17.1123C96.4925 17.6006 97.5911 18.1784 98.3398 18.8457C99.0885 19.4967 99.6175 20.0664 99.9268 20.5547C100.041 20.7337 100.122 20.8965 100.171 21.043C100.22 21.1732 100.252 21.3848 100.269 21.6777C100.317 22.0684 100.326 22.638 100.293 23.3867C100.277 24.1354 100.22 24.7946 100.122 25.3643C100.057 25.7223 99.9512 25.9583 99.8047 26.0723C99.7396 26.1374 99.6257 26.1943 99.4629 26.2432C99.3001 26.292 99.056 26.3164 98.7305 26.3164C98.2096 26.3164 97.6237 26.3001 96.9727 26.2676C96.3216 26.2188 95.8333 26.1699 95.5078 26.1211C95.1172 26.056 94.8324 25.9665 94.6533 25.8525C94.4743 25.7223 94.2952 25.527 94.1162 25.2666C93.8232 24.8434 93.3187 24.3551 92.6025 23.8018C91.8864 23.2484 90.7064 22.9717 89.0625 22.9717C86.7513 22.9717 84.847 23.8669 83.3496 25.6572C81.8522 27.4313 81.1035 30.3122 81.1035 34.2998C81.1035 38.2712 81.8848 41.2171 83.4473 43.1377C85.026 45.0583 86.9466 46.0186 89.209 46.0186ZM114.429 50.7061C114.429 51.1943 114.323 51.5361 114.111 51.7314C113.916 51.9105 113.574 52 113.086 52H107.886C107.397 52 107.048 51.9105 106.836 51.7314C106.641 51.5361 106.543 51.1943 106.543 50.7061V20.8965C106.543 20.4245 106.624 20.0664 106.787 19.8223C107.52 18.748 108.545 17.6169 109.863 16.4287C110.107 16.2334 110.319 16.1357 110.498 16.1357C110.693 16.1357 110.897 16.2334 111.108 16.4287C111.825 17.0472 112.427 17.6413 112.915 18.2109C113.403 18.7643 113.826 19.3014 114.185 19.8223C114.347 20.0827 114.429 20.4408 114.429 20.8965V31.0283H114.99C117.025 31.0283 118.677 30.7516 119.946 30.1982C121.216 29.6286 122.192 28.8717 122.876 27.9277C123.56 26.9674 124.023 25.9014 124.268 24.7295C124.528 23.5576 124.658 22.3613 124.658 21.1406V20.8965C124.658 20.4245 124.74 20.0664 124.902 19.8223C125.635 18.748 126.66 17.6169 127.979 16.4287C128.223 16.2334 128.434 16.1357 128.613 16.1357C128.809 16.1357 129.012 16.2334 129.224 16.4287C129.94 17.0472 130.542 17.6413 131.03 18.2109C131.519 18.7643 131.942 19.3014 132.3 19.8223C132.463 20.0827 132.544 20.4408 132.544 20.8965V21.1406C132.544 22.459 132.414 23.8262 132.153 25.2422C131.893 26.6419 131.429 27.9684 130.762 29.2217C130.111 30.4749 129.183 31.5492 127.979 32.4443C126.79 33.3232 125.252 33.901 123.364 34.1777V34.3486C125.057 34.8857 126.562 35.7809 127.881 37.0342C129.215 38.2712 130.363 39.6872 131.323 41.2822C132.3 42.8773 133.097 44.4805 133.716 46.0918C134.334 47.7031 134.774 49.1436 135.034 50.4131C135.164 51.0153 135.164 51.4303 135.034 51.6582C134.904 51.8861 134.595 52 134.106 52H128.125C127.295 52 126.807 51.6175 126.66 50.8525C126.416 49.6156 125.936 48.224 125.22 46.6777C124.52 45.1152 123.641 43.6097 122.583 42.1611C121.525 40.7126 120.345 39.5163 119.043 38.5723C117.757 37.6283 116.406 37.1562 114.99 37.1562H114.429V50.7061ZM155.273 50.7061C155.273 51.1943 155.168 51.5361 154.956 51.7314C154.761 51.9105 154.419 52 153.931 52H148.73C148.242 52 147.892 51.9105 147.681 51.7314C147.485 51.5361 147.388 51.1943 147.388 50.7061V23.4111H140.112C139.722 23.4111 139.429 23.346 139.233 23.2158C138.81 22.9229 138.371 22.5729 137.915 22.166C137.476 21.7591 136.995 21.2708 136.475 20.7012C136.312 20.4896 136.23 20.3187 136.23 20.1885C136.23 20.042 136.312 19.8792 136.475 19.7002C136.995 19.1305 137.476 18.6423 137.915 18.2354C138.371 17.8285 138.81 17.4785 139.233 17.1855C139.461 17.0553 139.754 16.9902 140.112 16.9902H162.573C162.964 16.9902 163.257 17.0553 163.452 17.1855C163.875 17.4785 164.315 17.8285 164.771 18.2354C165.226 18.6423 165.706 19.1305 166.211 19.7002C166.374 19.9118 166.455 20.0827 166.455 20.2129C166.455 20.3594 166.374 20.5221 166.211 20.7012C165.706 21.2708 165.226 21.7591 164.771 22.166C164.315 22.5729 163.875 22.9229 163.452 23.2158C163.224 23.346 162.931 23.4111 162.573 23.4111H155.273V50.7061ZM184.155 52.6104C180.77 52.6104 177.824 51.9593 175.317 50.6572C172.811 49.3551 170.866 47.3939 169.482 44.7734C168.115 42.153 167.432 38.8815 167.432 34.959C167.432 28.7253 168.953 24.0785 171.997 21.0186C175.041 17.9424 179.281 16.4043 184.717 16.4043C189.811 16.4043 193.84 17.9098 196.802 20.9209C199.764 23.9157 201.245 28.359 201.245 34.251C201.245 38.4176 200.553 41.86 199.17 44.5781C197.786 47.2799 195.817 49.2982 193.262 50.6328C190.706 51.9512 187.671 52.6104 184.155 52.6104ZM184.302 46.0186C187.231 46.0186 189.404 44.9688 190.82 42.8691C192.236 40.7695 192.944 38.0433 192.944 34.6904C192.944 30.8005 192.277 27.8789 190.942 25.9258C189.608 23.9727 187.459 22.9961 184.497 22.9961C178.654 22.9961 175.732 26.8454 175.732 34.5439C175.732 37.9782 176.432 40.7533 177.832 42.8691C179.248 44.9688 181.405 46.0186 184.302 46.0186ZM214.819 50.7061C214.819 51.1943 214.722 51.5361 214.526 51.7314C214.347 51.9105 214.022 52 213.55 52H208.643C208.187 52 207.861 51.9105 207.666 51.7314C207.471 51.5361 207.373 51.1943 207.373 50.7061V19.7734C207.373 18.8132 207.56 18.1133 207.935 17.6738C208.309 17.2181 208.968 16.9902 209.912 16.9902H212.183C213.013 16.9902 213.794 17.1042 214.526 17.332C215.275 17.5436 216.064 18.0319 216.895 18.7969C217.741 19.5618 218.717 20.75 219.824 22.3613C220.947 23.9564 222.298 26.1374 223.877 28.9043C225.391 31.541 226.603 33.6488 227.515 35.2275C228.442 36.8063 229.159 38.0107 229.663 38.8408C230.168 39.6709 230.542 40.265 230.786 40.623C231.047 40.9811 231.258 41.2741 231.421 41.502V20.8965C231.421 20.4245 231.494 20.0664 231.641 19.8223C232.34 18.748 233.309 17.6169 234.546 16.4287C234.79 16.2334 234.993 16.1357 235.156 16.1357C235.335 16.1357 235.531 16.2334 235.742 16.4287C236.41 17.0472 236.971 17.6413 237.427 18.2109C237.899 18.7643 238.306 19.3014 238.647 19.8223C238.794 20.0827 238.867 20.4408 238.867 20.8965V49.9736C238.867 50.7061 238.729 51.2269 238.452 51.5361C238.175 51.8454 237.671 52 236.938 52H234.595C233.895 52 233.179 51.8861 232.446 51.6582C231.714 51.4141 230.884 50.877 229.956 50.0469C229.028 49.2005 227.93 47.8903 226.66 46.1162C225.391 44.3421 223.861 41.917 222.07 38.8408C220.557 36.2204 219.344 34.137 218.433 32.5908C217.537 31.0446 216.854 29.8809 216.382 29.0996C215.91 28.3021 215.568 27.7487 215.356 27.4395C215.145 27.1139 214.966 26.8698 214.819 26.707V50.7061Z" fill="#0B0B0B"/>
</svg>
