<svg width="330" height="52" viewBox="0 0 330 52" fill="none" xmlns="http://www.w3.org/2000/svg">
<path d="M11.5088 49.1885C11.5088 49.8721 11.3607 50.3506 11.0645 50.624C10.791 50.8747 10.3125 51 9.62891 51H2.34863C1.66504 51 1.17513 50.8747 0.878906 50.624C0.605469 50.3506 0.46875 49.8721 0.46875 49.1885V11.1465C0.46875 8.86784 0.673828 7.06771 1.08398 5.74609C1.51693 4.40169 2.33724 3.44466 3.54492 2.875C4.77539 2.28255 6.56413 1.98633 8.91113 1.98633H17.9688C29.8633 1.98633 35.8105 6.55501 35.8105 15.6924C35.8105 18.4723 35.3434 20.751 34.4092 22.5283C33.4749 24.3057 32.3128 25.6956 30.9229 26.6982C29.5329 27.6781 28.1657 28.4186 26.8213 28.9199V29.0908C28.348 30.0934 29.7949 31.415 31.1621 33.0557C32.5521 34.6735 33.8053 36.4395 34.9219 38.3535C36.0384 40.2448 36.984 42.1247 37.7588 43.9932C38.5335 45.8389 39.069 47.4909 39.3652 48.9492C39.502 49.6328 39.502 50.1455 39.3652 50.4873C39.2513 50.8291 38.8639 51 38.2031 51H30.3076C29.7152 51 29.1911 50.8747 28.7354 50.624C28.3024 50.3734 27.9036 49.7923 27.5391 48.8809C25.8073 44.5286 23.8135 40.9854 21.5576 38.251C19.3018 35.4938 17.1257 33.2835 15.0293 31.6201C13.6849 30.5492 13.0127 29.7858 13.0127 29.3301C13.0127 28.9655 13.2292 28.4642 13.6621 27.8262C13.9355 27.4388 14.3343 26.9717 14.8584 26.4248C15.3825 25.8779 15.8382 25.4678 16.2256 25.1943C16.613 24.9209 16.9206 24.75 17.1484 24.6816C17.3991 24.6133 17.7751 24.5791 18.2764 24.5791C19.9626 24.5791 21.3639 23.998 22.4805 22.8359C23.6198 21.6738 24.1895 19.8395 24.1895 17.333C24.1895 14.9632 23.5856 13.2314 22.3779 12.1377C21.193 11.0212 19.5524 10.4629 17.4561 10.4629H15.4053C13.9014 10.4629 12.876 10.7819 12.3291 11.4199C11.7822 12.0579 11.5088 13.1517 11.5088 14.7012V49.1885ZM66.8115 51.8545C62.0719 51.8545 57.9476 50.943 54.4385 49.1201C50.9294 47.2972 48.2064 44.5514 46.2695 40.8828C44.3555 37.2142 43.3984 32.6341 43.3984 27.1426C43.3984 18.4154 45.529 11.9098 49.79 7.62598C54.0511 3.31934 59.987 1.16602 67.5977 1.16602C74.7298 1.16602 80.3695 3.27376 84.5166 7.48926C88.6637 11.682 90.7373 17.9027 90.7373 26.1514C90.7373 31.9847 89.7689 36.804 87.832 40.6094C85.8952 44.3919 83.138 47.2174 79.5605 49.0859C75.9831 50.9316 71.7334 51.8545 66.8115 51.8545ZM67.0166 42.626C71.1182 42.626 74.1602 41.1562 76.1426 38.2168C78.125 35.2773 79.1162 31.4606 79.1162 26.7666C79.1162 21.3206 78.182 17.2305 76.3135 14.4961C74.445 11.7617 71.4372 10.3945 67.29 10.3945C59.1097 10.3945 55.0195 15.7835 55.0195 26.5615C55.0195 31.3695 55.9993 35.2546 57.959 38.2168C59.9414 41.1562 62.9606 42.626 67.0166 42.626ZM119.893 42.626C121.556 42.626 122.855 42.4551 123.789 42.1133C124.746 41.7715 125.487 41.3499 126.011 40.8486C126.535 40.3473 126.991 39.846 127.378 39.3447C127.743 38.889 128.039 38.5472 128.267 38.3193C128.517 38.0915 128.859 37.932 129.292 37.8408C129.657 37.7269 130.238 37.6585 131.035 37.6357C131.855 37.5902 132.664 37.5674 133.462 37.5674C134.282 37.5674 134.852 37.5902 135.171 37.6357C135.649 37.6585 135.98 37.7497 136.162 37.9092C136.344 38.0687 136.458 38.4105 136.504 38.9346C136.572 39.6637 136.606 40.5296 136.606 41.5322C136.629 42.5348 136.618 43.4007 136.572 44.1299C136.549 44.3577 136.504 44.5514 136.436 44.7109C136.39 44.8704 136.276 45.1097 136.094 45.4287C135.866 45.7933 135.422 46.3288 134.761 47.0352C134.1 47.7188 133.132 48.4365 131.855 49.1885C130.579 49.9176 128.927 50.5443 126.899 51.0684C124.894 51.5924 122.422 51.8545 119.482 51.8545C116.338 51.8545 113.398 51.4557 110.664 50.6582C107.93 49.8379 105.526 48.4707 103.452 46.5566C101.401 44.6426 99.7949 42.0563 98.6328 38.7979C97.4935 35.5394 96.9238 31.472 96.9238 26.5957C96.9238 21.1725 97.8581 16.5697 99.7266 12.7871C101.618 8.98177 104.295 6.08789 107.759 4.10547C111.222 2.12305 115.324 1.13184 120.063 1.13184C123.39 1.13184 126.056 1.47363 128.062 2.15723C130.09 2.84082 131.628 3.64974 132.676 4.58398C133.724 5.49544 134.465 6.29297 134.897 6.97656C135.057 7.22721 135.171 7.45508 135.239 7.66016C135.308 7.84245 135.353 8.13867 135.376 8.54883C135.444 9.0957 135.456 9.89323 135.41 10.9414C135.387 11.9896 135.308 12.9124 135.171 13.71C135.08 14.2113 134.932 14.5417 134.727 14.7012C134.635 14.7923 134.476 14.8721 134.248 14.9404C134.02 15.0088 133.678 15.043 133.223 15.043C132.493 15.043 131.673 15.0202 130.762 14.9746C129.85 14.9062 129.167 14.8379 128.711 14.7695C128.164 14.6784 127.765 14.5531 127.515 14.3936C127.264 14.2113 127.013 13.9378 126.763 13.5732C126.353 12.9808 125.646 12.2972 124.644 11.5225C123.641 10.7477 121.989 10.3604 119.688 10.3604C116.452 10.3604 113.786 11.6136 111.689 14.1201C109.593 16.6038 108.545 20.637 108.545 26.2197C108.545 31.7796 109.639 35.904 111.826 38.5928C114.036 41.2816 116.725 42.626 119.893 42.626ZM155.2 49.1885C155.2 49.8721 155.052 50.3506 154.756 50.624C154.482 50.8747 154.004 51 153.32 51H146.04C145.356 51 144.867 50.8747 144.57 50.624C144.297 50.3506 144.16 49.8721 144.16 49.1885V7.45508C144.16 6.79427 144.274 6.29297 144.502 5.95117C145.527 4.44727 146.963 2.86361 148.809 1.2002C149.15 0.926758 149.447 0.790039 149.697 0.790039C149.971 0.790039 150.256 0.926758 150.552 1.2002C151.554 2.06608 152.397 2.89779 153.081 3.69531C153.765 4.47005 154.357 5.22201 154.858 5.95117C155.086 6.31576 155.2 6.81706 155.2 7.45508V21.6396H155.986C158.835 21.6396 161.147 21.2523 162.925 20.4775C164.702 19.68 166.069 18.6204 167.026 17.2988C167.983 15.9544 168.633 14.4619 168.975 12.8213C169.339 11.1807 169.521 9.50586 169.521 7.79688V7.45508C169.521 6.79427 169.635 6.29297 169.863 5.95117C170.889 4.44727 172.324 2.86361 174.17 1.2002C174.512 0.926758 174.808 0.790039 175.059 0.790039C175.332 0.790039 175.617 0.926758 175.913 1.2002C176.916 2.06608 177.759 2.89779 178.442 3.69531C179.126 4.47005 179.718 5.22201 180.22 5.95117C180.448 6.31576 180.562 6.81706 180.562 7.45508V7.79688C180.562 9.64258 180.379 11.5566 180.015 13.5391C179.65 15.4987 179.001 17.3558 178.066 19.1104C177.155 20.8649 175.856 22.3688 174.17 23.6221C172.507 24.8525 170.353 25.6615 167.71 26.0488V26.2881C170.08 27.04 172.188 28.2933 174.033 30.0479C175.902 31.7796 177.508 33.762 178.853 35.9951C180.22 38.2282 181.336 40.4727 182.202 42.7285C183.068 44.9844 183.683 47.001 184.048 48.7783C184.23 49.6214 184.23 50.2025 184.048 50.5215C183.866 50.8405 183.433 51 182.749 51H174.375C173.213 51 172.529 50.4645 172.324 49.3936C171.982 47.6618 171.31 45.7135 170.308 43.5488C169.328 41.3613 168.097 39.2536 166.616 37.2256C165.135 35.1976 163.483 33.5228 161.66 32.2012C159.86 30.8796 157.969 30.2188 155.986 30.2188H155.2V49.1885ZM212.383 49.1885C212.383 49.8721 212.235 50.3506 211.938 50.624C211.665 50.8747 211.187 51 210.503 51H203.223C202.539 51 202.049 50.8747 201.753 50.624C201.479 50.3506 201.343 49.8721 201.343 49.1885V10.9756H191.157C190.61 10.9756 190.2 10.8844 189.927 10.7021C189.334 10.292 188.719 9.80208 188.081 9.23242C187.466 8.66276 186.794 7.97917 186.064 7.18164C185.837 6.88542 185.723 6.64616 185.723 6.46387C185.723 6.25879 185.837 6.03092 186.064 5.78027C186.794 4.98275 187.466 4.29915 188.081 3.72949C188.719 3.15983 189.334 2.66992 189.927 2.25977C190.246 2.07747 190.656 1.98633 191.157 1.98633H222.603C223.149 1.98633 223.56 2.07747 223.833 2.25977C224.425 2.66992 225.041 3.15983 225.679 3.72949C226.317 4.29915 226.989 4.98275 227.695 5.78027C227.923 6.0765 228.037 6.31576 228.037 6.49805C228.037 6.70312 227.923 6.93099 227.695 7.18164C226.989 7.97917 226.317 8.66276 225.679 9.23242C225.041 9.80208 224.425 10.292 223.833 10.7021C223.514 10.8844 223.104 10.9756 222.603 10.9756H212.383V49.1885ZM252.817 51.8545C248.078 51.8545 243.953 50.943 240.444 49.1201C236.935 47.2972 234.212 44.5514 232.275 40.8828C230.361 37.2142 229.404 32.6341 229.404 27.1426C229.404 18.4154 231.535 11.9098 235.796 7.62598C240.057 3.31934 245.993 1.16602 253.604 1.16602C260.736 1.16602 266.375 3.27376 270.522 7.48926C274.67 11.682 276.743 17.9027 276.743 26.1514C276.743 31.9847 275.775 36.804 273.838 40.6094C271.901 44.3919 269.144 47.2174 265.566 49.0859C261.989 50.9316 257.739 51.8545 252.817 51.8545ZM253.022 42.626C257.124 42.626 260.166 41.1562 262.148 38.2168C264.131 35.2773 265.122 31.4606 265.122 26.7666C265.122 21.3206 264.188 17.2305 262.319 14.4961C260.451 11.7617 257.443 10.3945 253.296 10.3945C245.116 10.3945 241.025 15.7835 241.025 26.5615C241.025 31.3695 242.005 35.2546 243.965 38.2168C245.947 41.1562 248.966 42.626 253.022 42.626ZM295.747 49.1885C295.747 49.8721 295.61 50.3506 295.337 50.624C295.086 50.8747 294.631 51 293.97 51H287.1C286.462 51 286.006 50.8747 285.732 50.624C285.459 50.3506 285.322 49.8721 285.322 49.1885V5.88281C285.322 4.53841 285.584 3.55859 286.108 2.94336C286.632 2.30534 287.555 1.98633 288.877 1.98633H292.056C293.218 1.98633 294.312 2.14583 295.337 2.46484C296.385 2.76107 297.49 3.44466 298.652 4.51562C299.837 5.58659 301.204 7.25 302.754 9.50586C304.326 11.7389 306.217 14.7923 308.428 18.666C310.547 22.3574 312.244 25.3083 313.521 27.5186C314.819 29.7288 315.822 31.415 316.528 32.5771C317.235 33.7393 317.759 34.571 318.101 35.0723C318.465 35.5736 318.761 35.9837 318.989 36.3027V7.45508C318.989 6.79427 319.092 6.29297 319.297 5.95117C320.277 4.44727 321.632 2.86361 323.364 1.2002C323.706 0.926758 323.991 0.790039 324.219 0.790039C324.469 0.790039 324.743 0.926758 325.039 1.2002C325.973 2.06608 326.759 2.89779 327.397 3.69531C328.058 4.47005 328.628 5.22201 329.106 5.95117C329.312 6.31576 329.414 6.81706 329.414 7.45508V48.1631C329.414 49.1885 329.22 49.9176 328.833 50.3506C328.446 50.7835 327.739 51 326.714 51H323.433C322.453 51 321.45 50.8405 320.425 50.5215C319.399 50.1797 318.237 49.4277 316.938 48.2656C315.64 47.0807 314.102 45.2464 312.324 42.7627C310.547 40.279 308.405 36.8838 305.898 32.5771C303.779 28.9085 302.082 25.9919 300.806 23.8271C299.552 21.6624 298.595 20.0332 297.935 18.9395C297.274 17.8229 296.795 17.0482 296.499 16.6152C296.203 16.1595 295.952 15.8177 295.747 15.5898V49.1885Z" fill="white"/>
</svg>
